<?xml version="1.0" encoding="utf-8"?>
<!-- Generator: Adobe Illustrator 24.0.3, SVG Export Plug-In . SVG Version: 6.00 Build 0)  -->
<svg version="1.1" id="Layer_1" xmlns="http://www.w3.org/2000/svg" xmlns:xlink="http://www.w3.org/1999/xlink" x="0px" y="0px"
	 viewBox="0 0 280.39999 280.39999" enable-background="new 0 0 280.39999 280.39999" xml:space="preserve">
<g>
	<polygon fill="#FF9B00" points="66.6,0 280.39999,213.8 280.39999,0 	"/>
	<g>
		<path fill-rule="evenodd" clip-rule="evenodd" fill="#FFFFFF" d="M249.89999,30.5c-18-18-47.10001-18-65.10001,0
			c-14.39999,14.4-17.3,35.9-8.60001,53.2c1.3,1.9,2.89999,1.5,3.8,0.7c0.8-0.8,3.3-3.4,6-6.1c-11-7.1-7.10001-14.8-7.10001-14.8
			c2.3-5.2,1.10001-8.4,1.10001-8.4c-0.89999-5,2.2-1.8,2.2-1.8c3,3.5,1.60001,8.3,1.60001,8.3c-2.10001,7.9,4.10001,11.2,6.8,12.2
			c2.39999-1.8,4.7-2.4,6.39999-2.3c-6.39999-8.1-11.2-18.4,1.3-30.9c3.60001-3.6,7.7-5.2,12.10001-5.4c0.5-1.2,2.7-5.6,8.89999-8.3
			c0,0,3.60001,1.9,5.60001,12.3c3.3,1.9,6.5,4.3,9.2,7.1c2.8,2.8,5.2,5.9,7.10001,9.3c10.39999,2,12.3,5.6,12.3,5.6
			c-2.7,6.3-7.10001,8.5-8.3,8.9c-0.2,4.4-1.8,8.5-5.39999,12.1c-12.5,12.5-22.89999,7.6-30.89999,1.2c0.2,2.2-0.8,5.2-3.8,8.2
			c-4.39999,4.4-7.89999,7.8-9,8.9c-0.89999,0.9-1.3,2.5,0.7,3.8c17.2,8.6,38.8,5.7,53.09999-8.6
			C267.89999,77.6,267.89999,48.5,249.89999,30.5z"/>
	</g>
</g>
</svg>
