<?xml version="1.0" encoding="utf-8"?>
<!-- Generator: Adobe Illustrator 24.0.3, SVG Export Plug-In . SVG Version: 6.00 Build 0)  -->
<svg version="1.1" id="Layer_1" xmlns="http://www.w3.org/2000/svg" xmlns:xlink="http://www.w3.org/1999/xlink" x="0px" y="0px"
	 viewBox="0 0 512 512" enable-background="new 0 0 512 512" xml:space="preserve">
<g>
	<path fill="#0096E4" d="M310.55389,206.86891c-11.52682,4.89528-22.12827,7.56317-30.00574,6.05338
		c0,0,24.93817,15.07896,41.84091,18.59557c3.33371,0.69357,6.35684,0.94026,8.81223,0.52963
		c14.90482-2.49271,57.51321-72.58665,59.68954-76.92342C390.89084,155.12407,346.27655,191.69798,310.55389,206.86891z"/>
	<path fill="#FFFFFF" d="M229.49612,244.45552c-12.05415-28.16933-26.24835-50.83911-42.71169-61.5195
		c0,0,69.56746,15.63098,105.36223,38.05894c7.05975,4.42345,12.81424,9.1096,16.45288,13.99425
		c22.0874,29.65102-21.448,225.56737-24.95337,236.90977C283.64618,471.89899,266.85312,331.75485,229.49612,244.45552z"/>
	<path fill="#FF9B00" d="M165.67197,152.52679c5.95839,13.92415,12.97461,25.12988,21.11247,30.40923
		c0,0-34.38734-7.72643-52.08076-18.81262c-3.48965-2.18652-6.33411-4.5029-8.13269-6.91739
		c-10.91785-14.65656,10.60179-111.49841,12.3345-117.10498C138.90549,40.10102,147.20633,109.37455,165.67197,152.52679z"/>
	<circle fill="#FFFFFF" cx="265.13992" cy="142.78687" r="40.13945"/>
</g>
</svg>
