<?xml version="1.0" encoding="utf-8"?>
<!-- Generator: Adobe Illustrator 24.0.3, SVG Export Plug-In . SVG Version: 6.00 Build 0)  -->
<svg version="1.1" id="Layer_1" xmlns="http://www.w3.org/2000/svg" xmlns:xlink="http://www.w3.org/1999/xlink" x="0px" y="0px"
	 viewBox="0 0 280.4 280.4" style="enable-background:new 0 0 280.4 280.4;" xml:space="preserve">
<style type="text/css">
	.st0{fill:#333333;}
	.st1{fill:#FFFFFF;}
</style>
<g>
	<polygon class="st0" points="0,0 280.4,280.4 280.4,0 	"/>
	<g>
		<path class="st1" d="M70.1,36.9c-1.5,1.5-3.3,2.3-5.4,2.6l0,2.8l-1,1l-1-1l0-2.8c-2.1-0.2-3.9-1.1-5.4-2.6
			c-1.8-1.8-2.7-3.9-2.7-6.4c0-2.5,0.9-4.6,2.7-6.4c1.8-1.8,3.9-2.7,6.4-2.7c2.5,0,4.6,0.9,6.4,2.7c1.8,1.8,2.7,3.9,2.7,6.4
			C72.8,33,71.9,35.2,70.1,36.9z M58.7,35.5c1.1,1.1,2.4,1.8,3.9,2v-7l2,0l0,6.9c1.5-0.2,2.8-0.9,3.9-2c1.4-1.4,2.1-3,2.1-5
			c0-1.9-0.7-3.6-2-5c-1.4-1.4-3-2.1-5-2.1c-1.9,0-3.6,0.7-5,2c-1.4,1.4-2.1,3-2,5C56.7,32.4,57.4,34.1,58.7,35.5z"/>
		<path class="st1" d="M85.2,44.7l1.4,1.4l-5,5c-1.4,1.4-3.1,2.1-5,2.1c-2,0-3.6-0.7-5-2.1s-2.1-3.1-2.1-5c0-2,0.7-3.6,2.1-5l5-5
			l1.4,1.4l-5,5c-1,1-1.5,2.2-1.5,3.6c0,1.4,0.5,2.6,1.5,3.6c1,1,2.2,1.5,3.6,1.5c1.4,0,2.6-0.5,3.6-1.5L85.2,44.7z"/>
		<path class="st1" d="M90,47.1l1.4-1.4l1.4,1.4l-1.4,1.4L90,47.1z M78.8,58.4l10.1-10.1l1.4,1.4L80.2,59.8L78.8,58.4z"/>
		<path class="st1" d="M96,58.5l-3.6-3.6L89,58.3l0,0c0,0,0,0-0.1,0.1c0,0-0.1,0-0.1,0.1c-1,1-1.5,2.2-1.5,3.6
			c0,1.4,0.5,2.6,1.5,3.6L87.4,67c-1.4-1.4-2.1-3.1-2.1-5c0-2,0.7-3.6,2.1-5l7.7-7.7l1.4,1.4l-2.7,2.7l3.6,3.6L96,58.5z"/>
		<path class="st1" d="M112.2,84.1l1.6,1.6c-1.6,0.7-3.3,0.8-5.1,0.5c-1.8-0.3-3.3-1.2-4.6-2.4c-1.7-1.7-2.6-3.9-2.6-6.3
			c0-2.5,0.9-4.6,2.7-6.4s3.9-2.6,6.4-2.7c2.5,0,4.6,0.8,6.3,2.6c1.3,1.3,2.1,2.8,2.4,4.6c0.3,1.8,0.2,3.4-0.5,5.1l-1.6-1.6
			c0.3-1.2,0.3-2.3,0-3.5c-0.3-1.2-0.9-2.2-1.8-3.1c-1.3-1.3-3-2-4.9-2c-1.9,0-3.5,0.7-4.9,2.1c-1.4,1.4-2.1,3-2.1,4.9
			c0,1.9,0.6,3.5,2,4.9c0.9,0.9,1.9,1.5,3.1,1.8C109.9,84.4,111,84.4,112.2,84.1z"/>
		<path class="st1" d="M119.3,96l-1.4,1.4c-1.4-1.4-2.1-3.1-2.1-5c0-2,0.7-3.6,2.1-5l7.7-7.7l1.4,1.4l-7.6,7.6l0,0
			c-0.1,0.1-0.1,0.1-0.1,0.1c-1,1-1.5,2.2-1.5,3.6C117.8,93.9,118.3,95.1,119.3,96z"/>
		<path class="st1" d="M137.3,99.8c0,2-0.7,3.6-2.1,5c-1.4,1.4-3,2.1-5,2.1c-1.4,0-2.6-0.3-3.8-1.1c0,0-0.1-0.1-0.1-0.1l0,0
			c0,0-0.1,0-0.1-0.1l0,0c0,0-0.1,0-0.1-0.1l0,0l0,0c0,0,0,0-0.1-0.1c0,0,0,0,0,0c0,0,0,0-0.1-0.1c0,0,0,0,0,0c0,0,0,0-0.1-0.1
			c0,0,0,0,0,0s0,0-0.1-0.1c0,0,0,0,0,0c0,0,0,0-0.1-0.1c0,0,0,0,0,0c0,0-0.1-0.1-0.1-0.1c0,0-0.1-0.1-0.1-0.1l0,0
			c0,0-0.1-0.1-0.1-0.1l0,0c0-0.1,0-0.1-0.1-0.1c0,0,0,0,0,0c0,0-0.1-0.1-0.1-0.1c0,0,0,0,0,0c0-0.1-0.1-0.1-0.1-0.1c0,0,0,0,0,0
			c0,0,0-0.1-0.1-0.1l0,0c0,0-0.1-0.1-0.1-0.1l0,0c0,0-0.1-0.1-0.1-0.1c0-0.1-0.1-0.1-0.1-0.1c-0.7-1.2-1.1-2.4-1.1-3.8
			c0-1.9,0.7-3.6,2.1-5c1.4-1.4,3-2.1,5-2.1c1.4,0,2.7,0.4,3.8,1.1c0.1,0,0.1,0.1,0.1,0.1c0,0,0.1,0.1,0.1,0.1h0
			c0,0,0.1,0.1,0.1,0.1l0,0c0,0,0.1,0.1,0.1,0.1l0,0c0,0,0.1,0,0.1,0.1l0,0l0,0c0,0,0,0,0.1,0.1c0,0,0,0,0,0s0,0,0.1,0.1l0,0
			c0,0,0,0,0.1,0.1l0,0c0,0,0.1,0.1,0.1,0.1c0,0,0.1,0.1,0.1,0.1c0,0,0,0,0,0c0,0,0.1,0.1,0.1,0.1c0,0,0,0,0,0c0,0,0.1,0.1,0.1,0.1
			c0,0,0,0,0,0c0,0.1,0,0.1,0.1,0.1c0,0,0,0,0,0c0,0,0.1,0.1,0.1,0.1c0,0,0,0,0,0c0,0,0.1,0.1,0.1,0.1c0,0,0,0,0,0
			c0,0,0.1,0.1,0.1,0.1v0c0,0,0.1,0.1,0.1,0.1l0,0c0,0,0.1,0.1,0.1,0.1C136.9,97.1,137.3,98.4,137.3,99.8z M125.1,99.7
			c0,1.4,0.5,2.6,1.5,3.6s2.2,1.5,3.6,1.5c1.4,0,2.6-0.5,3.6-1.5c1-1,1.5-2.2,1.5-3.6c0-1.4-0.5-2.6-1.5-3.6c-1-1-2.2-1.5-3.6-1.5
			c-1.4,0-2.6,0.5-3.6,1.5C125.6,97.1,125.1,98.3,125.1,99.7z"/>
		<path class="st1" d="M147.4,106.9c1.4,1.4,2.1,3.1,2.1,5c0,2-0.7,3.6-2.1,5l-5,5l-1.4-1.4l5-5c1-1,1.5-2.2,1.5-3.6
			c0-1.4-0.5-2.6-1.5-3.6c-1-1-2.2-1.5-3.6-1.5c-1.4,0-2.6,0.5-3.6,1.5l-5,5l-1.4-1.4l5-5l5-5l1.4,1.4l-1.5,1.5
			C144.3,104.9,146,105.5,147.4,106.9z"/>
		<path class="st1" d="M155.9,112.9l1.4-1.4l1.4,1.4l-1.4,1.4L155.9,112.9z M144.6,124.2l10.1-10.1l1.4,1.4L146,125.7L144.6,124.2z"
			/>
		<path class="st1" d="M163.3,122.8c1.4,1.4,2.1,3.1,2.1,5c0,2-0.7,3.6-2.1,5l-5,5l-1.4-1.4l5-5c1-1,1.5-2.2,1.5-3.6
			c0-1.4-0.5-2.6-1.5-3.6c-1-1-2.2-1.5-3.6-1.5c-1.4,0-2.6,0.5-3.6,1.5l-5,5l-1.4-1.4l5-5l5-5l1.4,1.4l-1.5,1.5
			C160.2,120.7,161.9,121.4,163.3,122.8z"/>
		<path class="st1" d="M179.1,138.8l1.4,1.4l-11.4,11.4c-1.4,1.4-3.1,2.1-5,2.1c-2,0-3.6-0.7-5-2.1c-1.4-1.4-2.1-3.1-2.1-5
			c0-2,0.7-3.6,2.1-5l1.4,1.4c-1,1-1.5,2.2-1.5,3.6c0,1.4,0.5,2.6,1.5,3.6c1,1,2.2,1.5,3.6,1.5c1.4,0,2.6-0.5,3.6-1.5l2.9-2.9
			c-2,0-3.7-0.7-5.1-2.1c-1.4-1.4-2.1-3.1-2.1-5c0-2,0.7-3.6,2.1-5c1.4-1.4,3.1-2.1,5-2.1c2,0,3.6,0.7,5,2.1
			c1.4,1.4,2.1,3.1,2.1,5.1L179.1,138.8z M165.5,140.1c0,1.4,0.5,2.6,1.5,3.6c1,1,2.2,1.5,3.6,1.5c1.4,0,2.6-0.5,3.6-1.5
			c1-1,1.5-2.2,1.5-3.6c0-1.4-0.5-2.6-1.5-3.6c-1-1-2.2-1.5-3.6-1.5c-1.4,0-2.6,0.5-3.6,1.5C166,137.5,165.5,138.7,165.5,140.1z"/>
		<path class="st1" d="M193.1,150.4c2.1,0,4,0.8,5.5,2.3c1.5,1.5,2.3,3.4,2.3,5.5c0,2.1-0.8,4-2.3,5.5l-7.3,7.3l-1.4-1.4l4.3-4.3
			l-8.1-8.1l-4.3,4.3l-1.4-1.4l7.3-7.3C189.1,151.1,191,150.4,193.1,150.4z M187.6,155.6l8.1,8.1l1.5-1.5c1.1-1.1,1.7-2.5,1.7-4.1
			c0-1.6-0.6-2.9-1.7-4.1c-1.1-1.1-2.5-1.7-4.1-1.7c-1.6,0-3,0.6-4.1,1.7L187.6,155.6z"/>
		<path class="st1" d="M209.3,168.8l-1.4,1.4c-1-1-2.2-1.5-3.6-1.5c-1.4,0-2.6,0.5-3.6,1.5l-5,5l-1.4-1.4l10.1-10.1l1.4,1.4
			l-1.5,1.5C206.2,166.7,207.9,167.4,209.3,168.8z"/>
		<path class="st1" d="M218.6,181.1c0,2-0.7,3.6-2.1,5c-1.4,1.4-3,2.1-5,2.1c-1.4,0-2.6-0.3-3.8-1.1c0,0-0.1-0.1-0.1-0.1l0,0
			c0,0-0.1,0-0.1-0.1l0,0c0,0-0.1,0-0.1-0.1l0,0l0,0c0,0,0,0-0.1-0.1c0,0,0,0,0,0c0,0,0,0-0.1-0.1c0,0,0,0,0,0c0,0,0,0-0.1-0.1
			c0,0,0,0,0,0c0,0,0,0-0.1-0.1c0,0,0,0,0,0c0,0,0,0-0.1-0.1c0,0,0,0,0,0c0,0-0.1-0.1-0.1-0.1c0,0-0.1-0.1-0.1-0.1l0,0
			c0,0-0.1-0.1-0.1-0.1l0,0c0-0.1,0-0.1-0.1-0.1s0,0,0,0c0,0-0.1-0.1-0.1-0.1c0,0,0,0,0,0c0-0.1-0.1-0.1-0.1-0.1c0,0,0,0,0,0
			c0,0,0-0.1-0.1-0.1l0,0c0,0-0.1-0.1-0.1-0.1l0,0c0,0-0.1-0.1-0.1-0.1c0-0.1-0.1-0.1-0.1-0.1c-0.7-1.2-1.1-2.4-1.1-3.8
			c0-1.9,0.7-3.6,2.1-5c1.4-1.4,3-2.1,5-2.1c1.4,0,2.7,0.4,3.8,1.1c0.1,0,0.1,0.1,0.1,0.1c0,0,0.1,0.1,0.1,0.1h0
			c0,0,0.1,0.1,0.1,0.1l0,0c0,0,0.1,0.1,0.1,0.1l0,0c0,0,0.1,0,0.1,0.1l0,0l0,0c0,0,0,0,0.1,0.1c0,0,0,0,0,0s0,0,0.1,0.1l0,0
			c0,0,0,0,0.1,0.1l0,0c0,0,0.1,0.1,0.1,0.1c0,0,0.1,0.1,0.1,0.1c0,0,0,0,0,0c0,0,0.1,0.1,0.1,0.1c0,0,0,0,0,0c0,0,0.1,0.1,0.1,0.1
			s0,0,0,0c0,0.1,0,0.1,0.1,0.1c0,0,0,0,0,0c0,0,0.1,0.1,0.1,0.1c0,0,0,0,0,0c0,0,0.1,0.1,0.1,0.1s0,0,0,0c0,0,0.1,0.1,0.1,0.1v0
			c0,0,0.1,0.1,0.1,0.1l0,0c0,0,0.1,0.1,0.1,0.1C218.2,178.4,218.6,179.7,218.6,181.1z M206.4,181c0,1.4,0.5,2.6,1.5,3.6
			c1,1,2.2,1.5,3.6,1.5c1.4,0,2.6-0.5,3.6-1.5c1-1,1.5-2.2,1.5-3.6c0-1.4-0.5-2.6-1.5-3.6c-1-1-2.2-1.5-3.6-1.5
			c-1.4,0-2.6,0.5-3.6,1.5C206.9,178.4,206.4,179.6,206.4,181z"/>
		<path class="st1" d="M232.4,191.8l1.4,1.4l-5,5c-1.4,1.4-3.1,2.1-5,2.1c-2,0-3.6-0.7-5-2.1c-1.4-1.4-2.1-3.1-2.1-5
			c0-2,0.7-3.6,2.1-5l5-5l1.4,1.4l-5,5c-1,1-1.5,2.2-1.5,3.6c0,1.4,0.5,2.6,1.5,3.6c1,1,2.2,1.5,3.6,1.5c1.4,0,2.6-0.5,3.6-1.5
			L232.4,191.8z"/>
		<path class="st1" d="M241,200.5c1.4,1.4,2.1,3.1,2.1,5c0,2-0.7,3.6-2.1,5l-5,5l-1.4-1.4l5-5c1-1,1.5-2.2,1.5-3.6
			c0-1.4-0.5-2.6-1.5-3.6c-1-1-2.2-1.5-3.6-1.5c-1.4,0-2.6,0.5-3.6,1.5l-5,5l-1.4-1.4l5-5l5-5l1.4,1.4l-1.5,1.5
			C237.9,198.4,239.6,199.1,241,200.5z"/>
		<path class="st1" d="M259.5,213.7l1.4,1.4l-12.7,12.7l-1.4-1.4l1.5-1.5c-2,0-3.7-0.7-5.1-2.1c-1.4-1.4-2.1-3.1-2.1-5
			c0-2,0.7-3.6,2.1-5c1.4-1.4,3.1-2.1,5-2.1c2,0,3.6,0.7,5,2.1c1.4,1.4,2.1,3.1,2.1,5.1L259.5,213.7z M243.2,217.8
			c0,1.4,0.5,2.6,1.5,3.6c1,1,2.2,1.5,3.6,1.5c1.4,0,2.6-0.5,3.6-1.5c1-1,1.5-2.2,1.5-3.6c0-1.4-0.5-2.6-1.5-3.6
			c-1-1-2.2-1.5-3.6-1.5c-1.4,0-2.6,0.5-3.6,1.5C243.7,215.2,243.2,216.4,243.2,217.8z"/>
		<path class="st1" d="M253.3,227.2l9.9-9.9l1.4,1.4l-9.9,9.9L253.3,227.2z M250.4,230.1l1.4-1.4l1.4,1.4l-1.4,1.4L250.4,230.1z"/>
	</g>
</g>
</svg>
