<?xml version="1.0" encoding="utf-8"?>
<!-- Generator: Adobe Illustrator 24.1.0, SVG Export Plug-In . SVG Version: 6.00 Build 0)  -->
<svg version="1.1" id="Layer_1" xmlns="http://www.w3.org/2000/svg" xmlns:xlink="http://www.w3.org/1999/xlink" x="0px" y="0px"
	 viewBox="0 0 512 512" enable-background="new 0 0 512 512" xml:space="preserve">
<g>
	<path fill="#FF9B00" d="M413.41086,486.28094c0,0-56.69238-141.77042-94.69019-167.95258
		c-36.88123-25.41278-147.06499-8.15948-147.06499-8.15948l168.5088-42.39929L413.41086,486.28094z"/>
	<path fill="#FFFFFF" d="M42.50032,315.44156c0,0,173.52367-57.39221,203.83974-111.7636
		c27.07004-48.54965-2.04472-177.95889-2.04472-177.95889l71.49632,223.96866L42.50032,315.44156z"/>
	<path fill="#0096E4" d="M469.49966,192.05464c0,0-88.78943,11.46715-122.28333-9.56046
		c-32.63281-20.48701-69.18408-105.80756-69.18408-105.80756l49.90222,147.99875L469.49966,192.05464z"/>
	<path fill="#FFFFFF" d="M385.27435,336.84753c0,0-17.47272-61.60992-10.33212-79.79547
		c6.88-17.52188,49.98953-32.67879,49.98953-32.67879l-73.13858,17.6302L385.27435,336.84753z"/>
</g>
</svg>
